PathFileType	4	(X/Y/Z)	D:\TRACE\spot_10-12-23\spot_arm_body_motion_1_10-v60.trc
DataRate	CameraRate	NumFrames	NumMarkers	Units	OrigDataRate	OrigDataStartFrame	OrigNumFrames
100.00	100.00	      28	9	mm	100.00	3501	      7000
Frame#	Time	front left toe			Front right toe			aft left toe			aft right toe			Arm			FL body			FR body			AL Body			AR Body			
		X1	Y1	Z1	X2	Y2	Z2	X3	Y3	Z3	X4	Y4	Z4	X5	Y5	Z5	X6	Y6	Z6	X7	Y7	Z7	X8	Y8	Z8	X9	Y9	Z9	

3501	35.000	-151.29602	8.77329	-442.91089	299.81989	-7.51095	-514.29974	-67.80470	31.09701	137.87054	300.49069	15.58747	131.99973	90.90381	731.46069	-755.68536	73.52112	567.88440	-507.61691	225.99982	572.62872	-523.43878	159.99121	556.50641	370.24036	300.99503	555.66333	358.59613	
3502	35.010	-154.64368	11.50903	-443.03281	299.11078	-7.34634	-514.49359	-68.45322	31.11845	137.75685	299.58728	15.48363	131.85829	91.06583	731.45227	-756.02167	72.13413	567.89697	-507.57693	224.76585	572.83789	-523.59454	159.86272	556.43439	370.26352	300.84238	555.57513	358.25705	
3503	35.020	-152.90402	15.43862	-442.67197	298.07227	-7.43172	-514.80621	-69.21020	30.99236	138.10426	298.65964	15.37715	131.90356	91.43391	731.50061	-756.44843	70.56449	568.00049	-507.50067	223.77582	573.03534	-524.09412	159.48811	556.34985	370.24362	300.49591	555.62360	358.12939	
3504	35.030	-150.87398	25.10148	-438.81256	297.08014	-7.54600	-514.52734	-70.12790	31.18293	138.06516	298.04565	15.29262	131.92068	91.89606	731.51770	-756.84491	69.55888	567.84521	-507.57883	222.80322	573.19519	-524.21313	158.59471	556.28314	370.01855	299.70935	555.71027	357.90277	
3505	35.040	-148.52190	33.99265	-432.58765	296.28842	-7.62626	-514.60675	-70.77871	31.14199	137.95488	297.10812	15.50582	132.04259	92.13007	731.51630	-757.12982	68.22051	567.45801	-507.75458	221.68782	573.16241	-524.45721	157.61192	556.50568	369.84235	298.48608	556.09467	357.63287	
3506	35.050	-147.99796	44.65520	-429.92184	295.54294	-7.46516	-514.43500	-71.86184	31.21452	138.00377	295.95776	15.56176	132.06255	92.16395	731.49042	-757.40894	66.88589	566.98096	-507.99124	219.59163	572.80121	-524.31165	156.47487	556.99426	369.64972	297.68329	556.52942	357.43985	
3507	35.060	-146.81702	53.98484	-432.13101	294.53339	-7.34181	-514.73474	-72.68832	31.33608	137.98158	295.07501	15.63340	132.02682	91.95679	731.25085	-757.70215	65.47105	566.96857	-508.00516	218.17534	572.56091	-524.60126	155.55785	557.34375	369.58215	296.55240	557.08136	357.30096	
3508	35.070	-147.28261	66.28957	-437.25031	293.18610	-7.43868	-514.81732	-73.43530	31.12883	138.08632	294.10370	15.43891	132.06438	91.32552	730.81464	-757.95306	64.13110	566.96747	-508.12875	216.99489	571.98804	-524.44141	154.37485	557.64215	369.49261	295.37088	557.41516	357.14243	
3509	35.080	-146.44081	78.58762	-442.05826	292.27640	-7.44752	-514.76276	-74.70950	31.02966	138.14542	293.07446	15.47025	132.13690	90.53497	730.42133	-758.20837	62.51533	567.03589	-508.35938	215.84869	571.99506	-524.44031	153.19763	557.76385	369.42331	294.12384	557.44391	357.07236	
3510	35.090	-145.27158	89.46095	-443.75723	291.72623	-7.30852	-514.53381	-76.30571	31.44180	137.89996	292.11316	15.50429	131.79042	89.80756	730.13177	-758.37006	61.19761	567.13739	-508.36902	213.94263	572.61322	-524.81592	151.18468	557.69397	369.16418	292.94739	557.24054	357.14197	
3511	35.100	-144.07845	98.91187	-442.14835	290.70728	-7.35565	-514.52490	-77.01608	30.88011	137.86629	290.97406	15.77464	132.00891	88.82699	730.03577	-758.46448	59.92939	567.07599	-508.69342	212.79005	572.81580	-525.03485	149.51270	557.70178	369.00208	290.47287	557.45068	356.70224	
3512	35.110	-143.01108	107.07158	-439.00714	294.00809	-5.78078	-511.94028	-77.94987	30.70392	137.88838	290.30731	15.62471	131.82936	88.52689	729.89807	-758.52161	58.43591	567.09766	-509.01599	211.60959	572.91974	-525.83093	147.76407	558.04413	368.73853	288.79825	557.69751	356.60880	
3513	35.120	-142.85220	114.38319	-436.38013	288.79181	-7.09085	-514.56628	-79.01930	30.72339	137.87927	288.93094	15.88063	132.02788	87.78938	729.74512	-758.61121	56.91352	566.84961	-509.32120	209.97643	572.70209	-526.07599	146.07841	558.39130	368.51651	287.54065	558.19281	356.79300	
3514	35.130	-143.18491	120.25851	-435.79260	287.77496	-7.00800	-514.48712	-79.98309	30.67473	138.16406	287.94519	15.67297	131.79720	87.23313	729.44983	-758.57715	55.02338	566.85730	-509.57208	207.73567	572.57520	-525.70813	144.26030	558.77484	368.38446	285.64719	558.56213	356.06918	
3515	35.140	-143.02451	124.78733	-437.05829	286.58228	-6.85632	-514.61774	-81.09295	30.68547	138.07813	286.97321	15.55136	131.84880	86.31717	729.38641	-758.64807	53.13563	566.82629	-509.49643	206.13614	572.68799	-525.83618	142.99655	559.00317	368.41071	283.88193	558.98926	355.99191	
3516	35.150	-142.49997	127.24424	-438.94656	289.84039	-5.11651	-511.81671	-81.98798	30.62901	138.02374	285.93610	15.43714	131.80429	85.49720	729.25214	-758.86115	50.99247	567.14081	-509.57089	204.12442	572.98071	-526.39508	141.30550	559.35553	368.59164	282.40518	559.18542	355.76059	
3517	35.160	-140.96309	126.78137	-439.33798	284.28976	-6.45018	-514.72626	-83.01598	30.72366	138.20792	284.92422	15.30264	131.60507	84.81871	729.19574	-759.06879	48.97150	567.20673	-509.64496	201.54010	573.07892	-526.30920	139.49969	559.64301	368.02689	280.64737	559.22131	355.35526	
3518	35.170	-139.04047	125.30341	-438.40616	283.49338	-6.16969	-514.74353	-83.97766	30.46490	138.07861	283.88992	15.19676	131.52882	84.39396	729.25793	-759.16040	46.58031	567.55463	-509.96072	199.67992	573.55707	-526.97675	137.92926	559.61621	367.81171	278.68207	559.66949	355.33395	
3519	35.180	-136.33757	122.77942	-436.09009	282.48309	-5.75255	-514.61273	-84.86574	30.00444	138.26257	282.76868	15.09937	131.48001	84.12917	729.40210	-758.84894	44.22838	567.68817	-510.06635	197.07849	574.04327	-526.59869	135.85936	559.70459	367.62207	277.07809	559.82025	354.88147	
3520	35.190	-131.81361	120.85512	-434.45508	281.05966	-5.44291	-514.53064	-86.20724	29.83917	138.39909	281.63510	15.27643	131.38126	84.47420	729.19843	-758.56946	41.63935	568.14246	-510.24030	194.33859	574.60602	-527.05939	133.84280	559.85809	367.22415	275.25305	560.00507	354.33020	
3521	35.200	-127.12624	119.62980	-435.10956	279.63861	-5.21820	-514.92456	-87.01906	29.65669	138.61678	280.44330	15.30220	131.24289	85.66766	728.72479	-758.60852	38.25906	568.43976	-510.24884	190.89645	574.85413	-527.40381	132.74178	559.72931	366.87296	273.69119	560.24597	353.99121	
3522	35.210	-121.67304	118.70784	-438.77036	278.54727	-4.27489	-514.88348	-88.04336	29.52322	138.74126	279.71698	15.16982	131.08139	88.28001	727.95190	-759.46210	34.82304	568.77325	-510.30344	187.91646	575.62958	-528.18243	131.01311	559.93884	366.55948	271.95200	560.41052	353.15784	
3523	35.220	-115.24493	118.15860	-444.65692	281.45187	-2.30819	-512.25067	-88.67065	29.58638	138.97330	279.15878	15.90237	131.66711	92.21511	726.78497	-760.76709	31.34339	569.35046	-510.45578	183.86731	575.83612	-528.29828	129.15837	560.25519	366.29160	270.54456	560.96210	352.91013	
3524	35.230	-107.99316	117.32277	-450.82077	275.84824	-3.33934	-514.87592	-89.70641	29.63235	139.02620	278.33185	15.78298	131.55391	96.41306	726.00574	-762.28766	28.01605	569.59344	-510.50348	180.91536	576.23260	-529.10309	127.41334	560.50653	365.97409	268.41812	561.27899	352.10532	
3525	35.240	-99.41516	115.23879	-455.83594	279.25537	-1.59734	-512.42834	-90.81772	29.52649	138.55527	277.42990	15.77823	131.61761	101.00603	725.02148	-764.12744	24.96322	569.84180	-511.00827	177.58995	576.59149	-529.13086	125.79485	561.03851	365.26105	266.14478	561.72565	351.59259	
3526	35.250	-91.16948	110.00412	-459.22241	278.88043	-1.52546	-512.22943	-92.11189	29.45681	138.46289	276.38385	16.05954	131.53760	104.41074	724.30719	-765.87689	22.66489	569.98828	-511.68848	175.13130	576.53912	-529.90125	122.39787	561.89935	364.73135	263.19940	562.34851	351.09128	
3527	35.260	-84.36501	103.17432	-461.54849	278.02460	-1.97809	-512.02374	-93.22573	29.24057	138.80460	274.86475	16.34607	131.75589	106.70898	723.76428	-767.25006	20.79221	569.91376	-512.75757	173.60141	576.46594	-530.33972	118.77997	562.36261	363.88718	259.52078	563.02533	350.76434	
3528	35.270	-79.98307	94.78407	-462.62985	277.89844	-2.15685	-511.44992	-94.64952	29.16130	138.39865	273.85983	16.53172	131.95059	107.23186	723.23029	-768.63525	19.62519	569.40955	-513.85388	172.32069	576.18506	-531.15924	114.58089	563.01874	362.99957	255.23257	563.79572	350.26233	
